<svg width="45" height="32" viewBox="0 0 45 32" fill="none" xmlns="http://www.w3.org/2000/svg">
<path fill-rule="evenodd" clip-rule="evenodd" d="M30.0625 27.3437C30.0625 28.1673 29.4748 28.8351 28.75 28.8351H11.25C10.5251 28.8351 9.9375 28.1673 9.9375 27.3437C9.9375 26.52 10.5251 25.8522 11.25 25.8522H28.75C29.4748 25.8522 30.0625 26.52 30.0625 27.3437Z" fill="#1C1E21"/>
<path fill-rule="evenodd" clip-rule="evenodd" d="M21.3102 3.9772C21.3102 3.15348 20.7226 2.48572 19.9977 2.48572C19.2728 2.48572 18.6852 3.15348 18.6852 3.9772V18.9706L11.5866 10.9662C11.072 10.3861 10.241 10.3897 9.73043 10.9744C9.21987 11.5591 9.22309 12.5035 9.73763 13.0837L19.071 23.6078C19.5827 24.1849 20.4082 24.1849 20.9199 23.6078L30.2532 13.0837C30.7677 12.5035 30.7711 11.5591 30.2604 10.9744C29.7499 10.3897 28.9189 10.3861 28.4044 10.9662L21.3102 18.9655V3.9772Z" fill="#1C1E21"/>
</svg>
